<svg width="41" height="42" viewBox="0 0 41 42" fill="none" xmlns="http://www.w3.org/2000/svg">
<path d="M8.39668 35.9007H32.6033V41.3051L31.9982 41.9228L9.22878 42L8.39668 41.3051V35.9007Z" fill="white"/>
<path d="M16.1882 33.3529H8.39668V26.25C8.39668 26.25 7.41328 25.864 6.73247 25.4007C6.05166 24.9375 4.99262 24.0882 4.53875 23.7794C4.08487 23.4706 3.02583 22.1581 3.02583 22.1581L1.13469 19.1471L0 14.4375L0.832103 8.80147L3.55535 4.32353L7.79151 1.15809L13.238 0L16.9447 0.386029L20.3487 2.16176L22.9963 4.40074L24.9631 7.33456L25.9465 9.80515L26.2491 10.4228L27.762 10.3456L28.5185 9.95956V9.11029L27.0055 5.79044L28.8967 5.09559H31.6956L33.9649 5.48162L36.6125 6.71691L38.655 8.64706L40.1679 11.1949L41 14.2831V16.5221L40.6974 18.9154L39.7897 20.8456L38.2011 22.8529L36.8395 23.9338L35.024 25.0147L33.5111 25.5551L32.5277 25.7868V33.4301H24.8118V27.8713L24.5849 27.3309H23.9797H22.845L22.4668 27.5625V28.0257L22.3155 33.4301H18.6845V25.3235L18.2306 24.7059H16.7934L16.1882 25.0147V33.3529Z" fill="white"/>
<path d="M8.39668 35.9007H32.6033V41.3051L31.9982 41.9228L9.22878 42L8.39668 41.3051V35.9007Z" stroke="black"/>
<path d="M16.1882 33.3529H8.39668V26.25C8.39668 26.25 7.41328 25.864 6.73247 25.4007C6.05166 24.9375 4.99262 24.0882 4.53875 23.7794C4.08487 23.4706 3.02583 22.1581 3.02583 22.1581L1.13469 19.1471L0 14.4375L0.832103 8.80147L3.55535 4.32353L7.79151 1.15809L13.238 0L16.9447 0.386029L20.3487 2.16176L22.9963 4.40074L24.9631 7.33456L25.9465 9.80515L26.2491 10.4228L27.762 10.3456L28.5185 9.95956V9.11029L27.0055 5.79044L28.8967 5.09559H31.6956L33.9649 5.48162L36.6125 6.71691L38.655 8.64706L40.1679 11.1949L41 14.2831V16.5221L40.6974 18.9154L39.7897 20.8456L38.2011 22.8529L36.8395 23.9338L35.024 25.0147L33.5111 25.5551L32.5277 25.7868V33.4301H24.8118V27.8713L24.5849 27.3309H23.9797H22.845L22.4668 27.5625V28.0257L22.3155 33.4301H18.6845V25.3235L18.2306 24.7059H16.7934L16.1882 25.0147V33.3529Z" stroke="black"/>
</svg>
