<svg width="54" height="54" viewBox="0 0 54 54" fill="none" xmlns="http://www.w3.org/2000/svg">
<path d="M35.5 19.5C35.5 24.1944 31.6944 28 27 28V31C33.3513 31 38.5 25.8513 38.5 19.5H35.5ZM27 28C22.3056 28 18.5 24.1944 18.5 19.5H15.5C15.5 25.8513 20.6487 31 27 31V28ZM18.5 19.5C18.5 14.8056 22.3056 11 27 11V8C20.6487 8 15.5 13.1487 15.5 19.5H18.5ZM27 11C31.6944 11 35.5 14.8056 35.5 19.5H38.5C38.5 13.1487 33.3513 8 27 8V11ZM19.5 38.5H34.5V35.5H19.5V38.5ZM3.5 27C3.5 14.0213 14.0213 3.5 27 3.5V0.5C12.3645 0.5 0.5 12.3645 0.5 27H3.5ZM27 3.5C39.9787 3.5 50.5 14.0213 50.5 27H53.5C53.5 12.3645 41.6355 0.5 27 0.5V3.5ZM50.5 27C50.5 33.6645 47.7277 39.679 43.2694 43.9576L45.3466 46.1221C50.37 41.3013 53.5 34.5149 53.5 27H50.5ZM43.2694 43.9576C39.0455 48.0111 33.315 50.5 27 50.5V53.5C34.1198 53.5 40.5866 50.6902 45.3466 46.1221L43.2694 43.9576ZM34.5 38.5C38.6225 38.5 42.0625 41.4363 42.8367 45.3322L45.7792 44.7475C44.7313 39.4748 40.0815 35.5 34.5 35.5V38.5ZM27 50.5C20.685 50.5 14.9545 48.0111 10.7306 43.9576L8.65342 46.1221C13.4134 50.6902 19.8802 53.5 27 53.5V50.5ZM10.7306 43.9576C6.2723 39.679 3.5 33.6645 3.5 27H0.5C0.5 34.5149 3.63001 41.3013 8.65342 46.1221L10.7306 43.9576ZM19.5 35.5C13.9185 35.5 9.26869 39.4748 8.22081 44.7475L11.1633 45.3322C11.9375 41.4363 15.3775 38.5 19.5 38.5V35.5Z" fill="white"/>
</svg>
