<svg width="24" height="24" viewBox="0 0 24 24" fill="none" xmlns="http://www.w3.org/2000/svg">
<path d="M19.0745 17.3067C18.5863 16.8185 17.7948 16.8185 17.3067 17.3067C16.8185 17.7948 16.8185 18.5863 17.3067 19.0744L19.0745 17.3067ZM21.1161 22.8839C21.6043 23.3721 22.3957 23.3721 22.8839 22.8839C23.372 22.3958 23.372 21.6043 22.8839 21.1162L21.1161 22.8839ZM17.3067 19.0744L21.1161 22.8839L22.8839 21.1162L19.0745 17.3067L17.3067 19.0744ZM10.5714 17.8929C6.52792 17.8929 3.25 14.6149 3.25 10.5714H0.75C0.75 15.9956 5.14721 20.3929 10.5714 20.3929V17.8929ZM17.8929 10.5714C17.8929 14.6149 14.615 17.8929 10.5714 17.8929V20.3929C15.9957 20.3929 20.3929 15.9956 20.3929 10.5714H17.8929ZM10.5714 3.24997C14.615 3.24997 17.8929 6.52789 17.8929 10.5714H20.3929C20.3929 5.14718 15.9957 0.749969 10.5714 0.749969V3.24997ZM10.5714 0.749969C5.14721 0.749969 0.75 5.14718 0.75 10.5714H3.25C3.25 6.52789 6.52792 3.24997 10.5714 3.24997V0.749969Z" fill="white"/>
</svg>
